HIERARCHY
ROOT Hips
{
 OFFSET 0.000000 0.000000 0.000000
 CHANNELS 6 Xposition Yposition Zposition Yrotation Xrotation Zrotation
 JOINT Chest
 {
  OFFSET 0.000000 9.581000 -0.001100
  CHANNELS 3 Yrotation Xrotation Zrotation
  JOINT Chest2
  {
   OFFSET 0.000000 9.561100 0.002200
   CHANNELS 3 Yrotation Xrotation Zrotation
   JOINT Chest3
   {
    OFFSET 0.000000 9.521100 0.000000
    CHANNELS 3 Yrotation Xrotation Zrotation
    JOINT Chest4
    {
     OFFSET 0.000000 9.511400 0.000000
     CHANNELS 3 Yrotation Xrotation Zrotation
     JOINT Neck
     {
      OFFSET 0.000000 14.375100 0.000000
      CHANNELS 3 Yrotation Xrotation Zrotation
      JOINT Head
      {
       OFFSET 0.000000 8.901200 0.004600
       CHANNELS 3 Yrotation Xrotation Zrotation
       End Site
       {
        OFFSET 0.000000 16.962200 0.002400
       }
      }
     }
     JOINT RightCollar
     {
      OFFSET -2.920100 9.518800 0.000000
      CHANNELS 3 Yrotation Xrotation Zrotation
      JOINT RightShoulder
      {
       OFFSET -13.664500 0.000000 0.000000
       CHANNELS 3 Yrotation Xrotation Zrotation
       JOINT RightElbow
       {
        OFFSET 0.000000 -29.999200 0.000000
        CHANNELS 3 Yrotation Xrotation Zrotation
        JOINT RightWrist
        {
         OFFSET 0.000000 -24.253600 0.000000
         CHANNELS 3 Yrotation Xrotation Zrotation
         End Site
         {
          OFFSET 0.000000 -17.918900 0.000000
         }
        }
       }
      }
     }
     JOINT LeftCollar
     {
      OFFSET 2.920100 9.518800 0.000000
      CHANNELS 3 Yrotation Xrotation Zrotation
      JOINT LeftShoulder
      {
       OFFSET 13.664500 0.000000 0.000000
       CHANNELS 3 Yrotation Xrotation Zrotation
       JOINT LeftElbow
       {
        OFFSET 0.000000 -29.999200 0.000000
        CHANNELS 3 Yrotation Xrotation Zrotation
        JOINT LeftWrist
        {
         OFFSET 0.000000 -24.253600 0.000000
         CHANNELS 3 Yrotation Xrotation Zrotation
         End Site
         {
          OFFSET 0.000000 -17.918900 0.000000
         }
        }
       }
      }
     }
    }
   }
  }
 }
 JOINT RightHip
 {
  OFFSET -7.797300 0.005300 0.000500
  CHANNELS 3 Yrotation Xrotation Zrotation
  JOINT RightKnee
  {
   OFFSET 0.000000 -40.663400 -0.000500
   CHANNELS 3 Yrotation Xrotation Zrotation
   JOINT RightAnkle
   {
    OFFSET 0.000000 -39.523700 -0.000900
    CHANNELS 3 Yrotation Xrotation Zrotation
    JOINT RightToe
    {
     OFFSET 0.000000 -6.418000 14.485300
     CHANNELS 3 Yrotation Xrotation Zrotation
     End Site
     {
      OFFSET 0.000000 -1.465200 6.326400
     }
    }
   }
  }
 }
 JOINT LeftHip
 {
  OFFSET 7.797300 0.005300 0.000500
  CHANNELS 3 Yrotation Xrotation Zrotation
  JOINT LeftKnee
  {
   OFFSET 0.000000 -40.663400 -0.000500
   CHANNELS 3 Yrotation Xrotation Zrotation
   JOINT LeftAnkle
   {
    OFFSET 0.000000 -39.523700 -0.000900
    CHANNELS 3 Yrotation Xrotation Zrotation
    JOINT LeftToe
    {
     OFFSET 0.000000 -6.418000 14.485300
     CHANNELS 3 Yrotation Xrotation Zrotation
     End Site
     {
      OFFSET 0.000000 -1.465200 6.326400
     }
    }
   }
  }
 }
}
MOTION
Frames: 5
Frame Time: 0.008333
0.000000 86.422400 0.000000 0.000000 -5.767877 0.000000 0.000000 11.653817 0.000000 0.000000 -5.885947 0.000000 0.000000 -0.000000 0.000000 0.000000 -0.000000 0.000000 0.000000 12.528835 0.000000 0.000000 0.711642 0.000000 0.000000 -0.000000 0.000000 0.000000 0.000000 -90.000000 0.000000 -2.309062 0.000000 0.000000 2.309062 0.000000 0.000000 -0.000000 0.000000 0.000000 -0.000000 90.000000 0.000000 -2.309062 0.000000 0.000000 2.309062 0.000000 0.000000 8.520406 0.000000 0.000000 1.905762 0.000000 -0.000000 -4.658285 0.000000 0.000000 -0.000000 0.000000 0.000000 8.520406 0.000000 0.000000 1.905762 0.000000 -0.000000 -4.658285 0.000000 0.000000 -0.000000 0.000000
-23.636103 126.275672 53.482116 178.346495 -25.328829 -3.505375 -1.108504 20.134879 1.242654 -0.184725 2.482220 0.177062 -0.236815 4.156569 0.279560 -1.018996 17.247648 1.097525 4.827077 14.579270 -1.579467 5.538490 -10.290127 -2.812324 -6.628055 -6.604965 -2.787678 2.265679 -3.225056 -6.416223 70.847894 -71.143933 -40.756037 0.114569 1.277303 -27.503001 -6.814933 -3.387719 2.120010 4.732889 -5.187422 7.837872 -58.446372 -80.675482 43.613949 -26.866885 5.328983 16.699773 -10.432125 -55.879739 7.995206 -12.228010 70.767897 -14.641892 17.287284 12.558969 4.604860 0.007727 0.006439 0.003424 -9.073790 -55.639069 -0.456052 32.506158 65.103518 24.574162 -3.813769 37.238000 0.529986 -0.002435 0.017681 -0.001079
-23.634464 126.276827 53.485358 178.345787 -25.355798 -3.520510 -1.132094 20.122315 1.249682 -0.190045 2.467986 0.178942 -0.240230 4.165298 0.280376 -1.056112 17.209800 1.104893 5.024667 14.603254 -1.618291 5.753950 -10.271202 -2.893390 -6.569074 -6.548780 -2.851966 2.302931 -3.289217 -6.480605 70.520540 -71.136370 -40.381662 0.112111 1.285526 -27.470605 -6.668366 -3.330178 2.132789 4.752744 -5.234881 7.706980 -58.180989 -80.588916 43.281450 -26.819490 5.315546 16.675241 -10.418539 -55.851610 7.997416 -12.242886 70.747089 -14.637687 17.298596 12.581223 4.605714 0.010676 0.004073 0.004731 -9.126624 -55.612062 -0.404525 32.546845 65.090058 24.586908 -3.819530 37.239328 0.538003 -0.004992 0.016989 -0.002212
-23.632292 126.280734 53.483861 178.332857 -25.425170 -3.531310 -1.147276 20.137819 1.256384 -0.190647 2.462797 0.179577 -0.272590 4.111239 0.286640 -1.025116 17.284350 1.091456 5.194397 14.567066 -1.637913 5.970978 -10.258293 -2.972182 -6.551328 -6.533814 -2.888672 2.342516 -3.342755 -6.543491 70.212031 -71.161463 -40.056809 0.107202 1.281211 -27.467496 -6.578298 -3.306785 2.149218 4.734755 -5.257245 7.637492 -57.374485 -80.569419 42.526769 -26.834833 5.224766 16.625424 -10.395417 -55.782008 7.997619 -12.244295 70.725611 -14.627442 17.296639 12.611292 4.606204 0.006402 -0.002152 0.002836 -9.132087 -55.542121 -0.383946 32.565804 65.076595 24.592084 -3.816326 37.248763 0.550793 -0.007241 0.011990 -0.003209
-23.632463 126.282339 53.487603 178.333776 -25.466963 -3.532607 -1.177079 20.123723 1.249232 -0.188231 2.461201 0.182018 -0.284459 4.090152 0.288632 -1.044232 17.272979 1.092664 5.394160 14.579163 -1.670042 6.189734 -10.258724 -3.049664 -6.523167 -6.517401 -2.992644 2.402354 -3.341923 -6.554168 69.924935 -71.186606 -39.763166 0.112973 1.277404 -27.454124 -6.471649 -3.230468 2.129072 4.746646 -5.346721 7.544646 -56.574687 -80.513300 41.712570 -26.818812 5.166923 16.586742 -10.380221 -55.742684 7.985785 -12.253209 70.720542 -14.631692 17.290404 12.616722 4.602460 0.003996 0.001275 0.001770 -9.130118 -55.500500 -0.388868 32.550126 65.050187 24.567813 -3.806370 37.272261 0.584319 -0.006319 0.003575 -0.002800
